<svg width="163" height="231" viewBox="0 0 163 231" fill="none" xmlns="http://www.w3.org/2000/svg">
<path d="M79.3746 69.4889C78.1715 67.3142 75.4333 66.5266 73.2586 67.7297C71.0839 68.9328 70.2963 71.671 71.4994 73.8457L79.3746 69.4889ZM70.9636 72.8421C72.1013 75.0517 74.8148 75.9207 77.0244 74.7831C79.234 73.6454 80.103 70.9319 78.9653 68.7223L70.9636 72.8421ZM78.5818 67.9494C77.5103 65.707 74.8238 64.7577 72.5813 65.8292C70.3389 66.9008 69.3897 69.5872 70.4612 71.8297L78.5818 67.9494ZM69.985 70.7934C70.9888 73.0669 73.6456 74.0962 75.9192 73.0924C78.1927 72.0886 79.222 69.4318 78.2182 67.1582L69.985 70.7934ZM77.8802 66.3608C76.9444 64.0585 74.3193 62.9506 72.017 63.8864C69.7146 64.8223 68.6068 67.4473 69.5426 69.7497L77.8802 66.3608ZM69.1309 68.692C69.9981 71.0211 72.5891 72.2062 74.9182 71.339C77.2473 70.4718 78.4324 67.8807 77.5652 65.5516L69.1309 68.692ZM77.2738 64.7323C76.4755 62.3787 73.9204 61.1179 71.5668 61.9162C69.2133 62.7146 67.9525 65.2697 68.7508 67.6232L77.2738 64.7323ZM68.4032 66.5474C69.1328 68.9232 71.6502 70.2577 74.026 69.5282C76.4017 68.7986 77.7363 66.2813 77.0067 63.9055L68.4032 66.5474ZM76.7625 63.0671C76.1017 60.6713 73.6238 59.2648 71.228 59.9256C68.8322 60.5864 67.4256 63.0643 68.0864 65.4601L76.7625 63.0671ZM67.802 64.3686C68.3946 66.7822 70.8317 68.2583 73.2452 67.6657C75.6588 67.0731 77.135 64.636 76.5424 62.2224L67.802 64.3686ZM76.3454 61.3687C75.8204 58.9395 73.4256 57.3958 70.9964 57.9208C68.5672 58.4458 67.0235 60.8406 67.5485 63.2698L76.3454 61.3687ZM67.326 62.1672C67.7842 64.6099 70.1358 66.2186 72.5785 65.7605C75.0211 65.3023 76.6299 62.9507 76.1717 60.508L67.326 62.1672ZM76.0212 59.6408C75.6288 57.1867 73.3213 55.5153 70.8672 55.9076C68.4131 56.2999 66.7417 58.6074 67.134 61.0615L76.0212 59.6408ZM66.9718 59.9533C67.2994 62.4169 69.5621 64.1485 72.0257 63.8209C74.4893 63.4933 76.2209 61.2306 75.8933 58.767L66.9718 59.9533ZM75.7879 57.8875C75.5239 55.4163 73.3065 53.627 70.8353 53.8911C68.3641 54.1551 66.5748 56.3725 66.8389 58.8437L75.7879 57.8875ZM66.7345 57.7345C66.9363 60.2115 69.1081 62.0559 71.5851 61.8541C74.0622 61.6522 75.9066 59.4805 75.7047 57.0034L66.7345 57.7345ZM75.6433 56.114C75.5022 53.6327 73.3763 51.7356 70.8951 51.8767C68.4138 52.0178 66.5167 54.1436 66.6578 56.6249L75.6433 56.114ZM66.6081 55.5174C66.6899 58.0014 68.7699 59.9487 71.2538 59.8668C73.7377 59.785 75.685 57.7051 75.6032 55.2211L66.6081 55.5174ZM75.5842 54.3244C75.5601 51.8392 73.526 49.8441 71.0408 49.8682C68.5556 49.8922 66.5605 51.9264 66.5846 54.4115L75.5842 54.3244ZM66.5864 53.3078C66.5543 55.7929 68.5428 57.8335 71.0279 57.8656C73.5129 57.8977 75.5535 55.9092 75.5857 53.4242L66.5864 53.3078ZM75.6073 52.5224C75.694 50.0386 73.7508 47.9548 71.267 47.8682C68.7832 47.7815 66.6995 49.7247 66.6128 52.2084L75.6073 52.5224ZM66.6629 51.1108C66.5231 53.5921 68.4214 55.717 70.9027 55.8567C73.3841 55.9964 75.5089 54.0982 75.6487 51.6169L66.6629 51.1108ZM75.7091 50.7115C75.9002 48.2336 74.0464 46.0699 71.5684 45.8788C69.0905 45.6877 66.9268 47.5415 66.7357 50.0195L75.7091 50.7115ZM66.8308 48.9311C66.5898 51.4047 68.3997 53.6052 70.8733 53.8461C73.3469 54.0871 75.5474 52.2772 75.7884 49.8036L66.8308 48.9311ZM75.8859 48.8951C76.1751 46.4267 74.4085 44.1912 71.9401 43.902C69.4717 43.6128 67.2362 45.3793 66.947 47.8477L75.8859 48.8951ZM67.0837 46.7699C66.7478 49.2324 68.4717 51.5009 70.9342 51.8369C73.3966 52.1728 75.6652 50.4489 76.0011 47.9864L67.0837 46.7699ZM76.1339 47.0762C76.5151 44.6203 74.8333 42.3204 72.3774 41.9392C69.9215 41.558 67.6216 43.2398 67.2404 45.6957L76.1339 47.0762ZM67.4157 44.6292C66.9908 47.0779 68.6313 49.4074 71.08 49.8324C73.5287 50.2574 75.8582 48.6168 76.2832 46.1681L67.4157 44.6292ZM76.4491 45.259C76.9165 42.8181 75.3166 40.4604 72.8756 39.9931C70.4347 39.5257 68.0771 41.1256 67.6097 43.5666L76.4491 45.259ZM67.8212 42.5104C67.3128 44.9432 68.8729 47.3274 71.3056 47.8357C73.7384 48.3441 76.1226 46.784 76.6309 44.3513L67.8212 42.5104ZM76.8282 43.4445C77.3762 41.0204 75.8553 38.611 73.4312 38.063C71.0071 37.515 68.5977 39.0359 68.0497 41.46L76.8282 43.4445ZM68.2948 40.4147C67.7083 42.8298 69.1908 45.263 71.6059 45.8495C74.021 46.4359 76.4542 44.9535 77.0406 42.5384L68.2948 40.4147ZM77.2675 41.6346C77.8911 39.2288 76.4463 36.773 74.0406 36.1494C71.6348 35.5259 69.179 36.9706 68.5554 39.3764L77.2675 41.6346ZM68.8315 38.3432C68.172 40.7394 69.5797 43.2166 71.9759 43.8761C74.3721 44.5357 76.8492 43.1279 77.5088 40.7318L68.8315 38.3432ZM77.7638 39.8312C78.4582 37.4449 77.0867 34.9475 74.7004 34.253C72.3141 33.5586 69.8167 34.9301 69.1223 37.3164L77.7638 39.8312ZM69.4273 36.2956C68.6991 38.6718 70.035 41.1884 72.4112 41.9166C74.7874 42.6448 77.3041 41.3088 78.0323 38.9326L69.4273 36.2956ZM78.3138 38.0362C79.0747 35.6702 77.7737 33.1354 75.4077 32.3745C73.0418 31.6135 70.507 32.9146 69.746 35.2805L78.3138 38.0362ZM70.0781 34.2715C69.2854 36.6269 70.5523 39.179 72.9078 39.9717C75.2633 40.7644 77.8153 39.4975 78.608 37.1421L70.0781 34.2715ZM78.9145 36.251C79.738 33.9061 78.5046 31.3376 76.1597 30.5141C73.8149 29.6906 71.2464 30.924 70.4229 33.2689L78.9145 36.251ZM70.7805 32.2711C69.9271 34.6053 71.1274 37.1893 73.4616 38.0428C75.7958 38.8962 78.3798 37.6958 79.2332 35.3616L70.7805 32.2711ZM79.5634 34.4759C80.4458 32.1526 79.2778 29.5537 76.9545 28.6713C74.6311 27.7888 72.0323 28.9569 71.1498 31.2802L79.5634 34.4759ZM71.531 30.2948C70.6203 32.6072 71.7566 35.2201 74.069 36.1308C76.3815 37.0415 78.9943 35.9052 79.905 33.5928L71.531 30.2948ZM80.2579 32.7123C81.1961 30.4109 80.091 27.7847 77.7896 26.8465C75.4882 25.9083 72.862 27.0134 71.9238 29.3148L80.2579 32.7123ZM72.3268 28.3426C71.3619 30.6329 72.4363 33.2718 74.7267 34.2367C77.017 35.2016 79.6559 34.1271 80.6208 31.8368L72.3268 28.3426ZM80.9955 30.9614C81.9865 28.6822 80.9422 26.0312 78.6631 25.0402C76.3839 24.0492 73.7329 25.0935 72.7419 27.3726L80.9955 30.9614ZM73.1664 26.4113C72.15 28.6792 73.1646 31.3417 75.4325 32.3581C77.7005 33.3745 80.363 32.3599 81.3793 30.0919L73.1664 26.4113ZM81.7739 29.2243C82.8151 26.9676 81.8297 24.2942 79.5731 23.253C77.3164 22.2118 74.643 23.1972 73.6018 25.4538L81.7739 29.2243ZM74.047 24.5024C72.9816 26.7478 73.9381 29.4317 76.1834 30.4971C78.4288 31.5625 81.1127 30.6059 82.1781 28.3606L74.047 24.5024ZM82.591 27.5022C83.68 25.2682 82.7519 22.5744 80.5179 21.4853C78.2839 20.3963 75.5901 21.3244 74.5011 23.5584L82.591 27.5022ZM74.9665 22.6161C73.8543 24.8386 74.7543 27.542 76.9768 28.6543C79.1993 29.7665 81.9026 28.8665 83.0149 26.644L74.9665 22.6161ZM83.4457 25.7941C84.5806 23.5831 83.7082 20.8707 81.4972 19.7358C79.2861 18.6009 76.5737 19.4733 75.4388 21.6843L83.4457 25.7941ZM75.9232 20.7523C74.766 22.9518 75.6108 25.6729 77.8102 26.8301C80.0097 27.9873 82.7308 27.1425 83.888 24.9431L75.9232 20.7523ZM84.3372 24.0996C85.5162 21.9118 84.6985 19.1824 82.5107 18.0033C80.3229 16.8243 77.5936 17.642 76.4145 19.8298L84.3372 24.0996ZM76.9155 18.911C75.7149 21.0871 76.5057 23.8244 78.6818 25.0249C80.8578 26.2255 83.5951 25.4347 84.7957 23.2587L76.9155 18.911ZM85.263 22.4215C86.4847 20.2573 85.7207 17.5124 83.5565 16.2906C81.3923 15.0688 78.6474 15.8328 77.4256 17.9971L85.263 22.4215ZM77.9424 17.0919C76.6998 19.2442 77.4373 21.9964 79.5896 23.239C81.742 24.4816 84.4941 23.7441 85.7367 21.5917L77.9424 17.0919ZM86.2217 20.7609C87.485 18.6206 86.7741 15.8615 84.6339 14.5982C82.4936 13.3349 79.7345 14.0458 78.4712 16.1861L86.2217 20.7609ZM79.0033 15.2943C77.7197 17.4225 78.4044 20.1882 80.5325 21.4718C82.6607 22.7554 85.4264 22.0707 86.71 19.9426L79.0033 15.2943ZM87.2124 19.1186C88.5163 17.0029 87.8582 14.2307 85.7425 12.9268C83.6267 11.6228 80.8545 12.2809 79.5506 14.3966L87.2124 19.1186ZM80.1004 13.514C78.7764 15.6173 79.4082 18.3956 81.5115 19.7196C83.6147 21.0435 86.3931 20.4117 87.717 18.3085L80.1004 13.514ZM88.234 17.4958C89.578 15.4053 88.9729 12.6211 86.8824 11.277C84.7919 9.93299 82.0077 10.5381 80.6636 12.6286L88.234 17.4958ZM81.2311 11.7551C79.8672 13.8327 80.4457 16.6226 82.5232 17.9866C84.6008 19.3505 87.3907 18.772 88.7546 16.6945L81.2311 11.7551ZM89.286 15.8936C90.67 13.8293 90.1185 11.034 88.0542 9.64996C85.99 8.26597 83.1946 8.81743 81.8106 10.8817L89.286 15.8936ZM82.3959 10.0178C80.9919 12.0685 81.5162 14.8691 83.5669 16.2731C85.6176 17.6771 88.4182 17.1529 89.8222 15.1022L82.3959 10.0178ZM90.3679 14.3134C91.7922 12.2767 91.2957 9.47107 89.2591 8.0468C87.2224 6.62254 84.4167 7.119 82.9924 9.15569L90.3679 14.3134ZM83.5957 8.30216C82.1511 10.3244 82.6193 13.1349 84.6416 14.5796C86.6638 16.0243 89.4743 15.556 90.919 13.5337L83.5957 8.30216ZM91.4797 12.7574C92.9451 10.7501 92.5059 7.93494 90.4987 6.46948C88.4914 5.00402 85.6762 5.44323 84.2108 7.45048L91.4797 12.7574ZM84.832 6.60886C83.3455 8.60052 83.7549 11.4202 85.7466 12.9068C87.7383 14.3933 90.5579 13.9839 92.0445 11.9922L84.832 6.60886ZM92.6209 11.2287C94.1293 9.25349 93.7509 6.42948 91.7757 4.92108C89.8006 3.41267 86.9766 3.79107 85.4681 5.76625L92.6209 11.2287ZM86.1072 4.93909C84.5765 6.89704 84.9229 9.72516 86.8808 11.2559C88.8388 12.7866 91.6669 12.4402 93.1976 10.4822L86.1072 4.93909ZM93.7909 9.73262C95.3452 7.79335 95.0332 4.96125 93.0939 3.40695C91.1546 1.85264 88.3225 2.16472 86.7682 4.10399L93.7909 9.73262ZM87.4298 3.28908C85.8511 5.20855 86.1274 8.04437 88.0468 9.62305C89.9663 11.2017 92.8021 10.9255 94.3808 9.00599L87.4298 3.28908ZM94.9874 8.27858C96.5925 6.38108 96.3554 3.54172 94.4579 1.93669C92.5604 0.331655 89.721 0.568744 88.116 2.46624L94.9874 8.27858ZM79.5891 69.8699C79.5165 69.7432 79.445 69.6162 79.3746 69.4889L71.4994 73.8457C71.5915 74.0122 71.685 74.1783 71.78 74.344L79.5891 69.8699ZM78.9653 68.7223C78.8332 68.4657 78.7054 68.208 78.5818 67.9494L70.4612 71.8297C70.6231 72.1685 70.7906 72.506 70.9636 72.8421L78.9653 68.7223ZM78.2182 67.1582C78.1013 66.8935 77.9887 66.6277 77.8802 66.3608L69.5426 69.7497C69.6845 70.0987 69.8319 70.4467 69.985 70.7934L78.2182 67.1582ZM77.5652 65.5516C77.4639 65.2796 77.3668 65.0065 77.2738 64.7323L68.7508 67.6232C68.8719 67.9805 68.9986 68.3367 69.1309 68.692L77.5652 65.5516ZM77.0067 63.9055C76.9212 63.6271 76.8399 63.3477 76.7625 63.0671L68.0864 65.4601C68.1866 65.8233 68.2922 66.1858 68.4032 66.5474L77.0067 63.9055ZM76.5424 62.2224C76.4728 61.9389 76.4071 61.6543 76.3454 61.3687L67.5485 63.2698C67.6277 63.6366 67.7122 64.0029 67.802 64.3686L76.5424 62.2224ZM76.1717 60.508C76.1177 60.22 76.0675 59.9309 76.0212 59.6408L67.134 61.0615C67.193 61.4304 67.2569 61.799 67.326 62.1672L76.1717 60.508ZM75.8933 58.767C75.8545 58.4748 75.8193 58.1816 75.7879 57.8875L66.8389 58.8437C66.8784 59.2137 66.9227 59.5836 66.9718 59.9533L75.8933 58.767ZM75.7047 57.0034C75.6806 56.7078 75.6602 56.4113 75.6433 56.114L66.6578 56.6249C66.6788 56.9947 66.7043 57.3646 66.7345 57.7345L75.7047 57.0034ZM75.6032 55.2211C75.5934 54.923 75.5871 54.6241 75.5842 54.3244L66.5846 54.4115C66.5882 54.78 66.596 55.1487 66.6081 55.5174L75.6032 55.2211ZM75.5857 53.4242C75.5896 53.1242 75.5968 52.8236 75.6073 52.5224L66.6128 52.2084C66.6 52.5746 66.5912 52.9411 66.5864 53.3078L75.5857 53.4242ZM75.6487 51.6169C75.6656 51.3156 75.6858 51.0138 75.7091 50.7115L66.7357 50.0195C66.7077 50.3829 66.6834 50.7467 66.6629 51.1108L75.6487 51.6169ZM75.7884 49.8036C75.8178 49.5012 75.8504 49.1983 75.8859 48.8951L66.947 47.8477C66.9048 48.2084 66.866 48.5695 66.8308 48.9311L75.7884 49.8036ZM76.0011 47.9864C76.0425 47.6833 76.0868 47.3799 76.1339 47.0762L67.2404 45.6957C67.1849 46.0532 67.1326 46.4113 67.0837 46.7699L76.0011 47.9864ZM76.2832 46.1681C76.3358 45.8652 76.3911 45.5622 76.4491 45.259L67.6097 43.5666C67.542 43.9201 67.4773 44.2744 67.4157 44.6292L76.2832 46.1681ZM76.6309 44.3513C76.6941 44.049 76.7598 43.7468 76.8282 43.4445L68.0497 41.46C67.9707 41.8094 67.8945 42.1595 67.8212 42.5104L76.6309 44.3513ZM77.0406 42.5384C77.1138 42.237 77.1895 41.9357 77.2675 41.6346L68.5554 39.3764C68.4659 39.7217 68.379 40.0678 68.2948 40.4147L77.0406 42.5384ZM77.5088 40.7318C77.5915 40.4313 77.6765 40.1311 77.7638 39.8312L69.1223 37.3164C69.023 37.6578 68.926 38.0001 68.8315 38.3432L77.5088 40.7318ZM78.0323 38.9326C78.124 38.6334 78.2178 38.3346 78.3138 38.0362L69.746 35.2805C69.6376 35.6179 69.5313 35.9562 69.4273 36.2956L78.0323 38.9326ZM78.608 37.1421C78.7082 36.8445 78.8103 36.5475 78.9145 36.251L70.4229 33.2689C70.3059 33.602 70.191 33.9362 70.0781 34.2715L78.608 37.1421ZM79.2332 35.3616C79.3414 35.0657 79.4515 34.7705 79.5634 34.4759L71.1498 31.2802C71.0248 31.6093 70.9017 31.9396 70.7805 32.2711L79.2332 35.3616ZM79.905 33.5928C80.0209 33.2985 80.1386 33.005 80.2579 32.7123L71.9238 29.3148C71.7912 29.6401 71.6602 29.9668 71.531 30.2948L79.905 33.5928ZM80.6208 31.8368C80.7441 31.544 80.869 31.2522 80.9955 30.9614L72.7419 27.3726C72.602 27.6945 72.4636 28.0179 72.3268 28.3426L80.6208 31.8368ZM81.3793 30.0919C81.5094 29.8016 81.641 29.5124 81.7739 29.2243L73.6018 25.4538C73.4552 25.7715 73.3101 26.0906 73.1664 26.4113L81.3793 30.0919ZM82.1781 28.3606C82.3144 28.0732 82.4521 27.7871 82.591 27.5022L74.5011 23.5584C74.3485 23.8714 74.1971 24.1861 74.047 24.5024L82.1781 28.3606ZM83.0149 26.644C83.1574 26.3593 83.301 26.076 83.4457 25.7941L75.4388 21.6843C75.2803 21.9931 75.1228 22.3038 74.9665 22.6161L83.0149 26.644ZM83.888 24.9431C84.0368 24.6603 84.1865 24.3791 84.3372 24.0996L76.4145 19.8298C76.2498 20.1354 76.086 20.4429 75.9232 20.7523L83.888 24.9431ZM84.7957 23.2587C84.9507 22.9778 85.1065 22.6987 85.263 22.4215L77.4256 17.9971C77.2548 18.2996 77.0848 18.6043 76.9155 18.911L84.7957 23.2587ZM85.7367 21.5917C85.8978 21.3127 86.0595 21.0358 86.2217 20.7609L78.4712 16.1861C78.2943 16.4857 78.118 16.7877 77.9424 17.0919L85.7367 21.5917ZM86.71 19.9426C86.8771 19.6656 87.0445 19.3909 87.2124 19.1186L79.5506 14.3966C79.3678 14.6933 79.1853 14.9925 79.0033 15.2943L86.71 19.9426ZM87.717 18.3085C87.8891 18.035 88.0615 17.7641 88.234 17.4958L80.6636 12.6286C80.4757 12.9209 80.2879 13.2161 80.1004 13.514L87.717 18.3085ZM88.7546 16.6945C88.9318 16.4246 89.109 16.1576 89.286 15.8936L81.8106 10.8817C81.6175 11.1697 81.4243 11.4609 81.2311 11.7551L88.7546 16.6945ZM89.8222 15.1022C90.0045 14.8359 90.1865 14.5729 90.3679 14.3134L82.9924 9.15569C82.7939 9.43955 82.5951 9.72694 82.3959 10.0178L89.8222 15.1022ZM90.919 13.5337C91.1067 13.2711 91.2936 13.0122 91.4797 12.7574L84.2108 7.45048C84.0064 7.7304 83.8013 8.01433 83.5957 8.30216L90.919 13.5337ZM92.0445 11.9922C92.2379 11.7331 92.4301 11.4785 92.6209 11.2287L85.4681 5.76625C85.2572 6.04254 85.0451 6.32345 84.832 6.60886L92.0445 11.9922ZM93.1976 10.4822C93.3973 10.2268 93.5952 9.97689 93.7909 9.73262L86.7682 4.10399C86.5495 4.37695 86.329 4.65537 86.1072 4.93909L93.1976 10.4822ZM94.3808 9.00599C94.5859 8.75666 94.7882 8.51413 94.9874 8.27858L88.116 2.46624C87.8895 2.73404 87.6606 3.00839 87.4298 3.28908L94.3808 9.00599Z" fill="#564177"/>
<path d="M95 27.5C77 39.5 75.1667 56.8333 76.5 64C114.9 85.6 142.833 44.6667 152 21.5C140.5 18.5 113 15.5 95 27.5Z" stroke="#564177" stroke-width="10"/>
<circle cx="79.5" cy="191.5" r="39.5" fill="#564177"/>
<circle cx="79.5" cy="191.5" r="31.5" fill="#443C51"/>
<circle cx="51.5" cy="143.5" r="39.5" fill="#564177"/>
<circle cx="51.5" cy="143.5" r="31.5" fill="#443C51"/>
<circle cx="114.5" cy="143.5" r="39.5" fill="#564177"/>
<circle cx="114.5" cy="143.5" r="31.5" fill="#443C51"/>
<circle cx="123.5" cy="88.5" r="39.5" fill="#564177"/>
<circle cx="123.5" cy="88.5" r="31.5" fill="#443C51"/>
<circle cx="39.5" cy="88.5" r="39.5" fill="#564177"/>
<circle cx="39.5" cy="88.5" r="31.5" fill="#443C51"/>
<circle cx="83.5" cy="103.5" r="39.5" fill="#564177"/>
<circle cx="83.5" cy="103.5" r="39.5" fill="#564177"/>
<circle cx="83.5" cy="103.5" r="39.5" fill="#564177"/>
<circle cx="83.5" cy="103.5" r="39.5" fill="#564177"/>
<circle cx="83.5" cy="103.5" r="31.5" fill="#443C51"/>
</svg>
